<?xml version="1.0" encoding="iso-8859-1"?>
<!-- Generator: Adobe Illustrator 16.0.0, SVG Export Plug-In . SVG Version: 6.00 Build 0)  -->
<!DOCTYPE svg PUBLIC "-//W3C//DTD SVG 1.1//EN" "http://www.w3.org/Graphics/SVG/1.1/DTD/svg11.dtd">
<svg version="1.1" id="Capa_1" xmlns="http://www.w3.org/2000/svg" xmlns:xlink="http://www.w3.org/1999/xlink" x="0px" y="0px"
	 width="567.917px" height="567.917px" viewBox="0 0 567.917 567.917" style="enable-background:new 0 0 567.917 567.917;"
	 xml:space="preserve">
<g>
	<g>
		<path d="M32.902,161.491h502.106l4.302-35.974c1.004-8.39-5.033-15.192-13.482-15.192H287.017c-8.448,0-21.019-3.767-28.075-8.415
			l-46.175-30.417c-7.056-4.648-19.627-8.415-28.079-8.415H35.109c-8.449,0-14.397,6.79-13.284,15.166L32.902,161.491z"/>
		<path d="M65.449,489.903c1.833,8.25,10.168,14.936,18.62,14.936h399.777c8.448,0,16.787-6.686,18.62-14.936l65.092-292.913
			c1.833-8.25-3.531-14.936-11.979-14.936H12.339c-8.449,0-13.813,6.686-11.98,14.936L65.449,489.903z"/>
	</g>
</g>
<g>
</g>
<g>
</g>
<g>
</g>
<g>
</g>
<g>
</g>
<g>
</g>
<g>
</g>
<g>
</g>
<g>
</g>
<g>
</g>
<g>
</g>
<g>
</g>
<g>
</g>
<g>
</g>
<g>
</g>
</svg>
